<svg xmlns="http://www.w3.org/2000/svg" viewBox="0 0 62.57 62.57"><defs><style>.cls-1{fill:#e2001a;}</style></defs><title>Asset 1</title><g id="Layer_2" data-name="Layer 2"><g id="Layer_1-2" data-name="Layer 1"><path class="cls-1" d="M41.65,31.29,60.58,12.36c1.8-1.8,2.51-4,1.58-4.94l-7-7C54.2-.49,52,.22,50.18,2L31.29,20.92,12.36,2C10.55.19,8.34-.52,7.42.41l-7,7c-.92.93-.21,3.14,1.6,4.95L20.92,31.29,2,50.21C.19,52-.52,54.23.41,55.15l7,7c.93.92,3.14.21,4.95-1.6L31.29,41.65,50.21,60.58c1.8,1.8,4,2.51,4.94,1.58l7-7c.92-.93.21-3.14-1.6-4.95Z"/></g></g></svg>