<svg xmlns="http://www.w3.org/2000/svg" viewBox="0 0 79.05 71.96"><defs><style>.cls-1{fill:#97bf0d;}</style></defs><title>Asset 2</title><g id="Layer_2" data-name="Layer 2"><g id="Layer_1-2" data-name="Layer 1"><path class="cls-1" d="M17,.18A20.09,20.09,0,0,0,5,6.85,20.44,20.44,0,0,0,.4,17.05c-.58,3-.55,4.16.19,9.66.94,7,3.82,12.67,9.37,18.38,3.26,3.35,5.35,5.26,12.91,11.82,7,6.08,11.9,10.46,15.46,13.84L39.6,72l.62-.55c.35-.31,1.77-1.62,3.17-2.93,3.29-3,7.08-6.43,12.64-11.24,7.11-6.17,8.76-7.66,11.77-10.67C72,42.34,74.2,39.52,76,35.93a28.74,28.74,0,0,0,2.71-9A50.58,50.58,0,0,0,79,18.75,19.83,19.83,0,0,0,63.2.36,31.25,31.25,0,0,0,56,.1C49.79.94,44.31,4.59,40.24,10.63c-.3.44-.59.77-.67.73a10.27,10.27,0,0,1-.78-1.07,24.16,24.16,0,0,0-8.84-8A19.12,19.12,0,0,0,25.06.41,15.9,15.9,0,0,0,21,0,24.69,24.69,0,0,0,17,.18Z"/></g></g></svg>