<svg xmlns="http://www.w3.org/2000/svg" viewBox="0 0 29.01 10.35"><defs><style>.cls-1{fill:#e7511e;}</style></defs><title>Asset 2</title><g id="Layer_2" data-name="Layer 2"><g id="Layer_1-2" data-name="Layer 1"><path class="cls-1" d="M1.57,10.11a2,2,0,0,1-.86-.5,2.25,2.25,0,0,1-.53-.86A3.43,3.43,0,0,1,0,7.6V2.45H1.58V4H2.7v1.4H1.58V7.61a1.18,1.18,0,0,0,.29.91,1.19,1.19,0,0,0,.89.23v1.44A3,3,0,0,1,1.57,10.11Z"/><path class="cls-1" d="M3,10.2V4H4.58V10.2Z"/><path class="cls-1" d="M5.26,5.54A2.55,2.55,0,0,1,6.7,4.08a3,3,0,0,1,1.15-.21A3.09,3.09,0,0,1,9,4.07a2.4,2.4,0,0,1,1.4,1.44,3.2,3.2,0,0,1,.19,1.12V10.2H9V6.59a1.92,1.92,0,0,0,0-.33,1.11,1.11,0,0,0-.16-.39,1,1,0,0,0-.35-.32,1.25,1.25,0,0,0-.62-.13A1.19,1.19,0,0,0,7,5.74a1.13,1.13,0,0,0-.34.85V10.2H5.06V6.63A3,3,0,0,1,5.26,5.54Z"/><path class="cls-1" d="M16.79,8.38a3.14,3.14,0,0,1-.65,1,3.05,3.05,0,0,1-1,.69,3.18,3.18,0,0,1-1.28.25,3.21,3.21,0,0,1-1.29-.25,3.06,3.06,0,0,1-1-.69,3.14,3.14,0,0,1-.65-1,3.42,3.42,0,0,1,.64-3.54,3,3,0,0,1,.94-.7,2.65,2.65,0,0,1,1.15-.25,2.43,2.43,0,0,1,1.81.72V1.28H17V7.12A3.37,3.37,0,0,1,16.79,8.38ZM15.31,6.44A1.81,1.81,0,0,0,15,5.87a1.6,1.6,0,0,0-.5-.38,1.4,1.4,0,0,0-.61-.14,1.45,1.45,0,0,0-.61.13,1.53,1.53,0,0,0-.5.37,1.82,1.82,0,0,0-.34.56,1.93,1.93,0,0,0-.13.71,1.85,1.85,0,0,0,.13.69,1.76,1.76,0,0,0,.34.55,1.56,1.56,0,0,0,.5.37,1.45,1.45,0,0,0,.61.13,1.4,1.4,0,0,0,.61-.14,1.64,1.64,0,0,0,.5-.37,1.76,1.76,0,0,0,.34-.55,1.82,1.82,0,0,0,.13-.68A1.9,1.9,0,0,0,15.31,6.44Z"/><path class="cls-1" d="M22.09,9.76a3.13,3.13,0,0,1-1.94.58,3,3,0,0,1-1.24-.25,3.22,3.22,0,0,1-1.93-3,3.28,3.28,0,0,1,.25-1.27,3.2,3.2,0,0,1,.68-1,3.29,3.29,0,0,1,1-.7,3,3,0,0,1,1.24-.26A3.22,3.22,0,0,1,21.21,4a2.91,2.91,0,0,1,.91.5,3,3,0,0,1,.68.81,3.26,3.26,0,0,1,.39,1.1L18.83,8.3a1.71,1.71,0,0,0,.58.49,1.59,1.59,0,0,0,.74.17,1.69,1.69,0,0,0,.74-.17,1.26,1.26,0,0,0,.56-.55h1.69A2.86,2.86,0,0,1,22.09,9.76ZM20.84,5.4a1.63,1.63,0,0,0-.7-.14,1.59,1.59,0,0,0-1.17.5,1.86,1.86,0,0,0-.36.56,2,2,0,0,0-.15.72l2.9-1.22A1.47,1.47,0,0,0,20.84,5.4Z"/><path class="cls-1" d="M25,10.2,22.64,4H24.3l1.54,4.61L27.38,4H29L26.69,10.2Z"/><path class="cls-1" d="M3.22,3.62S2.16,2.93,2.58,2,2.72.8,2.63.74A.59.59,0,0,1,3,.9a.65.65,0,0,1,.06.75A1.49,1.49,0,0,1,3.64.74.93.93,0,0,0,4,.44.87.87,0,0,0,4.09,0a2.33,2.33,0,0,1,.65.67,2.37,2.37,0,0,1,.15,2.19,2,2,0,0,1-.72.75Z"/></g></g></svg>